<?xml version="1.0" encoding="utf-8"?>
<!-- Generator: Adobe Illustrator 17.0.0, SVG Export Plug-In . SVG Version: 6.00 Build 0)  -->
<!DOCTYPE svg PUBLIC "-//W3C//DTD SVG 1.1//EN" "http://www.w3.org/Graphics/SVG/1.1/DTD/svg11.dtd">
<svg version="1.1" id="Layer_1" xmlns="http://www.w3.org/2000/svg" xmlns:xlink="http://www.w3.org/1999/xlink" x="0px" y="0px"
	 width="30px" height="30px" viewBox="0 0 30 30" enable-background="new 0 0 30 30" xml:space="preserve">
<g>
	<g>
		<polyline fill="none" stroke="#D7642A" stroke-width="0.125" stroke-linecap="round" stroke-linejoin="round" points="
			6.409,7.832 6.409,12.5 6.409,17.5 6.409,22.167 		"/>
		<g>
			<g>
				<polyline fill="none" stroke="#8D6025" stroke-width="0.25" stroke-linecap="round" stroke-linejoin="round" points="
					7.632,0.357 7.632,12.5 7.632,17.5 7.632,29.643 				"/>
				<g>
					<circle fill="#8D6025" cx="7.632" cy="0.376" r="0.376"/>
				</g>
				<g>
					<circle fill="#8D6025" cx="7.632" cy="29.624" r="0.376"/>
				</g>
			</g>
		</g>
		<g>
			<g>
				<path fill="none" stroke="#D7642A" stroke-width="0.25" d="M5.821,4.078l0.221,0.206c3.67,3.426,10.275-3.915,6.361-2.324
					C8.89,3.387,8.856,7.832,8.856,7.832V12.5v5v4.667c0,0,0.034,4.445,3.548,5.873c3.914,1.59-2.691-5.751-6.361-2.324
					l-0.221,0.206"/>
				<g>
					<path fill="#D7642A" d="M4.939,3.255C5.21,3.796,5.48,4.54,5.539,5.116l0.398-0.93l0.9-0.461
						C6.258,3.706,5.497,3.488,4.939,3.255z"/>
				</g>
				<g>
					<path fill="#D7642A" d="M4.939,26.745c0.272-0.542,0.541-1.285,0.601-1.862l0.398,0.93l0.9,0.46
						C6.258,26.293,5.497,26.511,4.939,26.745z"/>
				</g>
			</g>
		</g>
	</g>
</g>
<g>
	<g>
		<polyline fill="none" stroke="#D7642A" stroke-width="0.125" stroke-linecap="round" stroke-linejoin="round" points="
			23.091,22.168 23.091,17.5 23.091,12.5 23.091,7.833 		"/>
		<g>
			<g>
				<polyline fill="none" stroke="#8D6025" stroke-width="0.25" stroke-linecap="round" stroke-linejoin="round" points="
					21.868,29.643 21.868,17.5 21.868,12.5 21.868,0.357 				"/>
				<g>
					<circle fill="#8D6025" cx="21.868" cy="29.624" r="0.376"/>
				</g>
				<g>
					<circle fill="#8D6025" cx="21.868" cy="0.376" r="0.376"/>
				</g>
			</g>
		</g>
		<g>
			<g>
				<path fill="none" stroke="#D7642A" stroke-width="0.25" d="M23.679,25.922l-0.221-0.206c-3.67-3.426-10.275,3.915-6.361,2.324
					c3.514-1.428,3.548-5.872,3.548-5.872V17.5v-5V7.833c0,0-0.034-4.445-3.548-5.873c-3.914-1.59,2.691,5.751,6.361,2.324
					l0.221-0.206"/>
				<g>
					<path fill="#D7642A" d="M24.561,26.745c-0.271-0.542-0.541-1.285-0.601-1.862l-0.398,0.93l-0.9,0.461
						C23.242,26.294,24.003,26.512,24.561,26.745z"/>
				</g>
				<g>
					<path fill="#D7642A" d="M24.561,3.255C24.29,3.797,24.02,4.54,23.961,5.117l-0.398-0.93l-0.9-0.46
						C23.242,3.707,24.003,3.489,24.561,3.255z"/>
				</g>
			</g>
		</g>
	</g>
</g>
</svg>
