<?xml version="1.0" encoding="utf-8"?>
<!-- Generator: Adobe Illustrator 17.0.0, SVG Export Plug-In . SVG Version: 6.00 Build 0)  -->
<!DOCTYPE svg PUBLIC "-//W3C//DTD SVG 1.1//EN" "http://www.w3.org/Graphics/SVG/1.1/DTD/svg11.dtd">
<svg version="1.1" id="Layer_1" xmlns="http://www.w3.org/2000/svg" xmlns:xlink="http://www.w3.org/1999/xlink" x="0px" y="0px"
	 width="100px" height="100px" viewBox="0 0 100 100" enable-background="new 0 0 100 100" xml:space="preserve">
<g opacity="0.9">
	<ellipse fill="#FFFFFF" cx="45.097" cy="50" rx="8.987" ry="7.979"/>
	<g>
		<path fill="none" stroke="#D7642A" stroke-width="1.5" stroke-linecap="round" stroke-linejoin="round" d="M57.697,8.728
			c0,0-0.561-0.179-1.608-0.433c-0.525-0.129-1.174-0.281-1.942-0.442c-0.192-0.039-0.391-0.08-0.597-0.122
			c-0.239-0.044-0.486-0.089-0.741-0.135c-0.606-0.101-1.253-0.197-1.94-0.284c-0.686-0.087-1.412-0.164-2.172-0.226
			c-0.363-0.026-0.735-0.052-1.114-0.078l-0.196-0.009c-0.133-0.006-0.272-0.012-0.415-0.019l-0.219-0.01l-0.056-0.003l-1.625-0.036
			l-0.125,0.001L44.44,6.942c-2.719,0.05-5.818,0.32-9.198,1.086c-6.717,1.508-14.599,4.868-21.58,11.78
			C10.2,23.246,6.998,27.604,4.679,32.82c-0.572,1.322-1.11,2.636-1.555,4.039c-0.224,0.699-0.434,1.406-0.629,2.117l-0.28,1.069
			l-0.137,0.567l-0.164,0.773c-0.21,1.035-0.384,2.082-0.522,3.134c-0.069,0.526-0.128,1.053-0.178,1.58l-0.093,1.146l-0.043,0.756
			l-0.056,2.064l0.001,0.07l0.002,0.139l0.005,0.279l0.015,0.558l0.047,1.116c0.04,0.743,0.096,1.486,0.168,2.225
			c0.159,1.478,0.408,2.957,0.708,4.414c0.629,2.899,1.548,5.707,2.71,8.309c2.319,5.216,5.52,9.574,8.981,13.014
			c6.98,6.913,14.863,10.274,21.579,11.783c0.423,0.09,0.841,0.179,1.255,0.267l0.655,0.126l0.843,0.137
			c1.12,0.172,2.223,0.303,3.299,0.395c0.458,0.033,0.91,0.065,1.356,0.097l0.249,0.011c0.163,0.007,0.322,0.014,0.476,0.021
			l0.114,0.005c0.572,0.012,1.141,0.024,1.708,0.036l0.248-0.003c0.33-0.008,0.654-0.016,0.973-0.024
			c0.637-0.021,1.251-0.051,1.84-0.089c1.17-0.064,2.279-0.217,3.26-0.349c1.962-0.262,3.524-0.646,4.57-0.896
			c1.047-0.253,1.608-0.432,1.608-0.432"/>
		<g>
			<g>
				<path fill="none" stroke="#8D6025" stroke-width="3" stroke-linecap="round" stroke-linejoin="round" d="M74.429,48.162
					c0,0-0.014-0.196-0.042-0.577c-0.026-0.38-0.08-0.942-0.2-1.674c-0.219-1.459-0.652-3.618-1.659-6.131
					c-0.986-2.529-2.585-5.359-4.865-7.989c-2.274-2.634-5.226-5.045-8.713-6.84c-1.742-0.905-3.615-1.636-5.588-2.206
					c-0.492-0.14-0.989-0.255-1.494-0.373l-0.761-0.166c-0.275-0.055-0.459-0.101-0.84-0.16c-0.683-0.111-1.377-0.202-2.077-0.274
					l-1.054-0.092l-0.415-0.024l-0.531-0.024l-0.134-0.006l-1.034-0.021l-0.201,0.004l-0.808,0.024
					c-1.078,0.032-2.173,0.125-3.288,0.294c-2.218,0.308-4.491,0.906-6.731,1.777c-2.243,0.88-4.458,2.075-6.564,3.586
					c-2.104,1.548-4.099,3.4-5.852,5.655c-1.747,2.265-3.243,4.887-4.288,7.809c-0.256,0.732-0.479,1.486-0.684,2.24l-0.148,0.568
					l-0.073,0.3l-0.084,0.397c-0.108,0.53-0.203,1.065-0.283,1.603c-0.376,2.93-0.226,2.38-0.293,2.977
					c-0.066,2.346-0.018,0.692-0.032,1.235l0.001,0.074l0.003,0.147l0.008,0.295l0.023,0.59l0.073,1.178
					c0.051,0.784,0.173,1.565,0.305,2.344c0.251,1.563,0.683,3.07,1.183,4.545c1.046,2.922,2.542,5.545,4.288,7.809
					c1.753,2.254,3.748,4.107,5.852,5.655c2.106,1.511,4.321,2.707,6.564,3.587c1.119,0.438,2.249,0.802,3.373,1.102
					c1.172,0.281,2.074,0.517,3.723,0.725c0.726,0.094,1.526,0.17,2.183,0.213l0.544,0.024l0.27,0.012l0.067,0.003l0.968,0.021
					l0.1-0.002l0.401-0.009c0.534-0.014,1.064-0.037,1.59-0.07c4.223-0.277,8.256-1.466,11.735-3.267
					c3.487-1.794,6.439-4.205,8.713-6.84c2.281-2.63,3.88-5.46,4.866-7.988c0.517-1.238,0.85-2.437,1.126-3.462
					c0.033-0.129,0.066-0.256,0.097-0.38l0.046-0.185l0.054-0.251c0.065-0.335,0.127-0.656,0.187-0.962
					c0.11-0.617,0.191-1.181,0.252-1.687c0.061-0.498,0.105-0.969,0.132-1.321c0.004-0.073,0.008-0.134,0.01-0.184
					c0.006-0.099,0.009-0.15,0.009-0.15"/>
				<g>
					<path fill="#8D6025" d="M78.923,47.749c0.086,1.275-1.933,2.283-4.421,2.251c-2.491-0.031-4.521-0.756-4.58-1.618
						c-0.045-0.863,1.84-1.864,4.3-2.245C76.683,45.757,78.847,46.473,78.923,47.749z"/>
				</g>
				<g>
					<path fill="#8D6025" d="M78.944,51.922c0.016-0.277-1.99-0.618-4.475-0.76c-2.486-0.142-4.518-0.031-4.533,0.246
						c-0.004,0.069,0.118,0.143,0.343,0.216c0.221,0.109,0.561,0.048,0.942,0.37c0.778,0.471,1.867,0.866,3.106,0.99
						c1.238,0.124,2.398-0.078,3.259-0.569c0.108-0.061,0.21-0.126,0.308-0.196c0.098-0.078,0.181-0.035,0.264-0.059
						c0.163-0.018,0.305-0.038,0.42-0.062C78.81,52.05,78.94,51.991,78.944,51.922z"/>
				</g>
			</g>
		</g>
		<g>
			<g>
				<path fill="none" stroke="#D7642A" stroke-width="3" d="M83.47,16.864c0,0-0.77,0.135-1.54,0.27
					c-0.756,0.168-1.511,0.337-1.511,0.337c-6.26,1.468-11.324,5.241-15.728,9.758c-4.412,4.526-8.233,9.826-12.128,14.963
					c-1.944,2.572-3.901,5.109-5.914,7.52l-0.757,0.898l-0.19,0.223c-0.015,0.017-0.005,0.006-0.005,0.006l0.006-0.007l0.026-0.028
					l0.048-0.057c0.075-0.083,0.187-0.187,0.296-0.281c0.53-0.428,0.908-0.475,0.68-0.412c-0.105,0.041-0.292,0.124-0.547,0.31
					c-0.045,0.039-0.136,0.099-0.188,0.149c0.211-0.189,0.42-0.376,0.628-0.562c0.22-0.205,0.436-0.413,0.635-0.616
					c0.398-0.407,0.762-0.813,1.094-1.215c1.342-1.624,2.114-3.149,2.554-4.509c0.842-2.71,0.309-4.56-0.254-5.521
					c-0.283-0.508-0.593-0.776-0.813-0.953c-0.223-0.17-0.364-0.22-0.364-0.22s-0.191-0.067-0.556-0.148
					c-0.39-0.081-0.831-0.222-1.695-0.324c-0.204-0.024-0.419-0.049-0.644-0.076c-0.11-0.011-0.222-0.022-0.338-0.033l-0.196-0.009
					c-0.133-0.006-0.272-0.012-0.415-0.019l-0.219-0.01l-0.056-0.003l-0.289-0.007l-0.044,0.001l-0.179,0.006
					c-0.958,0.024-2.048,0.109-3.218,0.381c-2.328,0.515-5.025,1.692-7.289,3.95c-1.127,1.12-2.137,2.506-2.855,4.119
					c-0.365,0.824-0.628,1.623-0.843,2.591l-0.139,0.824l-0.056,0.414c-0.015,0.125-0.038,0.315-0.037,0.344l-0.043,0.756
					l-0.009,0.347l0.001,0.021l0.001,0.043l0.003,0.085l0.007,0.17l0.017,0.341l0.045,0.68c0.05,0.451,0.135,0.9,0.217,1.345
					c0.197,0.884,0.473,1.744,0.834,2.549c0.718,1.613,1.728,2.999,2.855,4.119c2.264,2.258,4.961,3.435,7.289,3.95
					c0.539,0.139,1.253,0.235,1.885,0.303c0.147,0.014,0.291,0.028,0.434,0.041l0.249,0.011c0.163,0.007,0.322,0.014,0.476,0.021
					l0.114,0.005l0.326,0.006l0.087-0.003c0.116-0.004,0.23-0.008,0.342-0.012c0.224-0.01,0.44-0.02,0.648-0.03
					c0.415-0.011,0.797-0.083,1.141-0.124c1.376-0.206,2.145-0.458,2.145-0.458s0.141-0.05,0.364-0.22
					c0.22-0.177,0.531-0.444,0.814-0.953c0.562-0.961,1.097-2.811,0.254-5.521c-0.44-1.36-1.212-2.885-2.553-4.509
					c-0.332-0.403-0.696-0.809-1.094-1.216c-0.199-0.204-0.415-0.411-0.635-0.617c-0.207-0.186-0.417-0.373-0.628-0.562
					c0.052,0.05,0.143,0.11,0.188,0.149c0.255,0.186,0.443,0.27,0.547,0.31c0.228,0.063-0.15,0.016-0.68-0.413
					c-0.108-0.093-0.221-0.198-0.296-0.281l-0.048-0.057l-0.026-0.028l-0.006-0.007c0,0-0.01-0.012,0.005,0.006l0.19,0.223
					l0.757,0.898c2.013,2.411,3.97,4.948,5.913,7.521c3.894,5.138,7.714,10.438,12.126,14.965c4.404,4.517,9.467,8.29,15.728,9.759
					c0,0,0.756,0.168,1.511,0.337c0.77,0.135,1.54,0.27,1.54,0.27"/>
				<g>
					<path fill="#D7642A" d="M96.481,16.354c-2.929-1.454-6.116-2.844-9.106-4.174c-2.962-1.251-5.721-2.45-7.799-3.633
						c0,0,0.183,0.535,0.457,1.337c0.263,0.8,0.583,1.858,0.874,2.957c0.589,2.178,0.949,4.308,0.949,4.308s-1.345,2.53-2.863,4.912
						c-1.501,2.398-3.167,4.638-3.167,4.638c2.753-2.123,6.147-4.328,9.758-6.175C89.192,18.688,93.025,17.228,96.481,16.354z"/>
				</g>
				<g>
					<path fill="#D7642A" d="M96.477,83.65c-2.929,1.453-6.116,2.843-9.105,4.172c-2.962,1.251-5.72,2.45-7.8,3.633
						c0,0,0.183-0.535,0.457-1.337c0.263-0.801,0.583-1.858,0.875-2.957c0.589-2.178,0.95-4.309,0.95-4.309
						s-1.344-2.529-2.861-4.909c-1.5-2.397-3.165-4.636-3.165-4.636c2.751,2.122,6.143,4.327,9.753,6.173
						C89.189,81.316,93.022,82.776,96.477,83.65z"/>
				</g>
			</g>
		</g>
	</g>
</g>
</svg>
